<svg width="16" height="17" viewBox="0 0 16 17" fill="none" xmlns="http://www.w3.org/2000/svg">
<path fill-rule="evenodd" clip-rule="evenodd" d="M1.83329 1.83333C1.18896 1.83333 0.666626 2.35566 0.666626 2.99999V5.33333C0.666626 5.97766 1.18896 6.5 1.83329 6.5H14.1666C14.811 6.5 15.3333 5.97766 15.3333 5.33333V2.99999C15.3333 2.35566 14.811 1.83333 14.1666 1.83333H1.83329ZM14.1666 2.83333H1.83329C1.74125 2.83333 1.66663 2.90795 1.66663 2.99999V5.33333C1.66663 5.42538 1.74125 5.49999 1.83329 5.49999H14.1666C14.2587 5.49999 14.3333 5.42538 14.3333 5.33333V2.99999C14.3333 2.90795 14.2587 2.83333 14.1666 2.83333Z" fill="#1F2328"/>
<path d="M1.83329 7.16666C2.10943 7.16666 2.33329 7.39052 2.33329 7.66666V14C2.33329 14.092 2.40791 14.1667 2.49996 14.1667H13.5C13.592 14.1667 13.6666 14.092 13.6666 14V7.66666C13.6666 7.39052 13.8905 7.16666 14.1666 7.16666C14.4428 7.16666 14.6666 7.39052 14.6666 7.66666V14C14.6666 14.6443 14.1443 15.1667 13.5 15.1667H2.49996C1.85563 15.1667 1.33329 14.6443 1.33329 14V7.66666C1.33329 7.39052 1.55715 7.16666 1.83329 7.16666Z" fill="#1F2328"/>
<path d="M6.49996 8.16666C6.22382 8.16666 5.99996 8.39052 5.99996 8.66666C5.99996 8.9428 6.22382 9.16666 6.49996 9.16666H9.49996C9.7761 9.16666 9.99996 8.9428 9.99996 8.66666C9.99996 8.39052 9.7761 8.16666 9.49996 8.16666H6.49996Z" fill="#1F2328"/>
</svg>
