<svg width="16" height="17" viewBox="0 0 16 17" fill="none" xmlns="http://www.w3.org/2000/svg">
<path fill-rule="evenodd" clip-rule="evenodd" d="M4.5 0.5C4.77614 0.5 5 0.723858 5 1V2.5H11V1C11 0.723858 11.2239 0.5 11.5 0.5C11.7761 0.5 12 0.723858 12 1V2.5H13.8333C14.4777 2.5 15 3.02233 15 3.66667V14.3333C15 14.9777 14.4777 15.5 13.8333 15.5H2.16667C1.52233 15.5 1 14.9777 1 14.3333V3.66667C1 3.02234 1.52233 2.5 2.16667 2.5H4V1C4 0.723858 4.22386 0.5 4.5 0.5ZM2.16667 3.5C2.07462 3.5 2 3.57462 2 3.66667V5.83333H14V3.66667C14 3.57462 13.9254 3.5 13.8333 3.5H2.16667ZM14 6.83333H2V14.3333C2 14.4254 2.07462 14.5 2.16667 14.5H13.8333C13.9254 14.5 14 14.4254 14 14.3333V6.83333Z" fill="#1F2328"/>
</svg>
