<svg width="16" height="17" viewBox="0 0 16 17" fill="none" xmlns="http://www.w3.org/2000/svg">
<path d="M2.33331 3.00001C2.33331 2.90796 2.40793 2.83334 2.49998 2.83334H11.5C11.592 2.83334 11.6666 2.90796 11.6666 3.00001V9.66668C11.6666 9.94282 11.8905 10.1667 12.1666 10.1667C12.4428 10.1667 12.6666 9.94282 12.6666 9.66668V3.00001C12.6666 2.35568 12.1443 1.83334 11.5 1.83334H2.49998C1.85565 1.83334 1.33331 2.35568 1.33331 3.00001V14C1.33331 14.6443 1.85565 15.1667 2.49998 15.1667H7.16665C7.44279 15.1667 7.66665 14.9428 7.66665 14.6667C7.66665 14.3905 7.44279 14.1667 7.16665 14.1667H2.49998C2.40793 14.1667 2.33331 14.0921 2.33331 14V3.00001Z" fill="#2623D2"/>
<path d="M4.16665 5.16668C3.8905 5.16668 3.66665 5.39053 3.66665 5.66668C3.66665 5.94282 3.8905 6.16668 4.16665 6.16668H9.83331C10.1095 6.16668 10.3333 5.94282 10.3333 5.66668C10.3333 5.39053 10.1095 5.16668 9.83331 5.16668H4.16665Z" fill="#2623D2"/>
<path d="M3.66665 8.33334C3.66665 8.0572 3.8905 7.83334 4.16665 7.83334H7.16665C7.44279 7.83334 7.66665 8.0572 7.66665 8.33334C7.66665 8.60949 7.44279 8.83334 7.16665 8.83334H4.16665C3.8905 8.83334 3.66665 8.60949 3.66665 8.33334Z" fill="#2623D2"/>
<path d="M14.5202 11.3536C14.7155 11.1583 14.7155 10.8417 14.5202 10.6465C14.3249 10.4512 14.0084 10.4512 13.8131 10.6465L10.5 13.9596L9.18687 12.6465C8.9916 12.4512 8.67502 12.4512 8.47976 12.6465C8.2845 12.8417 8.2845 13.1583 8.47976 13.3536L10.1464 15.0202C10.3417 15.2155 10.6583 15.2155 10.8535 15.0202L14.5202 11.3536Z" fill="#2623D2"/>
</svg>
