<svg width="16" height="17" viewBox="0 0 16 17" fill="none" xmlns="http://www.w3.org/2000/svg">
<path fill-rule="evenodd" clip-rule="evenodd" d="M3.33333 2.16667C3.14924 2.16667 3 2.31591 3 2.50001V14.5C3 14.6841 3.14924 14.8333 3.33333 14.8333H12.6667C12.8508 14.8333 13 14.6841 13 14.5V6.16667H10.3333C9.59695 6.16667 9 5.56972 9 4.83334V2.16667H3.33333ZM10 2.16688V4.83334C10 5.01743 10.1492 5.16667 10.3333 5.16667H12.9998C12.9968 5.08257 12.9621 5.00253 12.9024 4.94281L10.2239 2.2643C10.1641 2.20459 10.0841 2.16987 10 2.16688ZM2 2.50001C2 1.76363 2.59695 1.16667 3.33333 1.16667H9.98816C10.3418 1.16667 10.6809 1.30715 10.931 1.5572L13.6095 4.23571C13.8595 4.48576 14 4.82489 14 5.17852V14.5C14 15.2364 13.403 15.8333 12.6667 15.8333H3.33333C2.59695 15.8333 2 15.2364 2 14.5V2.50001Z" fill="#1F2328"/>
</svg>
