<svg width="16" height="17" viewBox="0 0 16 17" fill="none" xmlns="http://www.w3.org/2000/svg">
<rect width="16" height="16" transform="translate(0 0.5)" fill="white"/>
<path d="M1.66663 2.33334C1.66663 2.0572 1.44277 1.83334 1.16663 1.83334C0.890484 1.83334 0.666626 2.0572 0.666626 2.33334V14.6667C0.666626 14.9428 0.890484 15.1667 1.16663 15.1667H13.3333C13.6094 15.1667 13.8333 14.9428 13.8333 14.6667C13.8333 14.3905 13.6094 14.1667 13.3333 14.1667H1.66663V2.33334Z" fill="#1F2328"/>
<path d="M14.8535 5.6869C15.0488 5.49163 15.0488 5.17505 14.8535 4.97979C14.6582 4.78453 14.3417 4.78453 14.1464 4.97979L10.3333 8.7929L7.85351 6.31312C7.65825 6.11786 7.34167 6.11786 7.14641 6.31312L3.14641 10.3131C2.95114 10.5084 2.95114 10.825 3.14641 11.0202C3.34167 11.2155 3.65825 11.2155 3.85351 11.0202L7.49996 7.37378L9.97974 9.85356C10.175 10.0488 10.4916 10.0488 10.6868 9.85356L14.8535 5.6869Z" fill="#1F2328"/>
</svg>
