<svg width="16" height="21" viewBox="0 0 16 21" fill="none" xmlns="http://www.w3.org/2000/svg">
<path id="Icon" fill-rule="evenodd" clip-rule="evenodd" d="M1.73648 2.25182C1.49672 2.25182 1.30236 2.44619 1.30236 2.68594V18.3143C1.30236 18.554 1.49672 18.7484 1.73648 18.7484H13.8918C14.1316 18.7484 14.326 18.554 14.326 18.3143V7.46127H10.853C9.89397 7.46127 9.11652 6.68382 9.11652 5.72479V2.25182H1.73648ZM10.4189 2.2521V5.72479C10.4189 5.96454 10.6132 6.15891 10.853 6.15891H14.3257C14.3218 6.04937 14.2766 5.94513 14.1988 5.86736L10.7104 2.37897C10.6327 2.3012 10.5284 2.25599 10.4189 2.2521ZM0 2.68594C0 1.72691 0.777449 0.949463 1.73648 0.949463H10.4035C10.864 0.949463 11.3057 1.13241 11.6313 1.45807L15.1197 4.94645C15.4454 5.27211 15.6283 5.71379 15.6283 6.17433V18.3143C15.6283 19.2733 14.8509 20.0508 13.8918 20.0508H1.73648C0.777449 20.0508 0 19.2733 0 18.3143V2.68594Z" fill="#22C55E"/>
</svg>
