<svg width="24" height="25" viewBox="0 0 24 25" fill="none" xmlns="http://www.w3.org/2000/svg">
<path fill-rule="evenodd" clip-rule="evenodd" d="M12.7502 3.25C12.7502 2.83579 12.4144 2.5 12.0002 2.5C11.586 2.5 11.2502 2.83579 11.2502 3.25V4.99988H9.27584C8.92478 4.99988 8.58183 5.10547 8.29155 5.30292L6.59559 6.4566C6.55412 6.48481 6.50513 6.4999 6.45497 6.4999H2.3526C1.93839 6.4999 1.6026 6.83568 1.6026 7.2499C1.6026 7.66411 1.93839 7.9999 2.3526 7.9999H3.93116L0.563217 15.6797C0.430905 15.9814 0.519516 16.3502 0.773331 16.5599C0.853768 16.6244 0.934186 16.685 1.08208 16.7814C1.26766 16.9024 1.53438 17.0591 1.87455 17.2144C2.55468 17.525 3.53604 17.8335 4.75007 17.8335C5.9641 17.8335 6.94546 17.525 7.62559 17.2144C7.96577 17.0591 8.23248 16.9024 8.41806 16.7814C8.56724 16.6842 8.6478 16.6234 8.72887 16.5582C8.98644 16.3445 9.07132 15.9861 8.93692 15.6797L5.56898 7.9999H6.45497C6.80604 7.9999 7.14899 7.89431 7.43926 7.69685L9.13523 6.54317C9.1767 6.51496 9.22569 6.49988 9.27584 6.49988H11.2502V21H6.763C6.34879 21 6.013 21.3358 6.013 21.75C6.013 22.1642 6.34879 22.5 6.763 22.5H17.2374C17.6516 22.5 17.9874 22.1642 17.9874 21.75C17.9874 21.3358 17.6516 21 17.2374 21H12.7502V6.49988H14.7242C14.7743 6.49988 14.8233 6.51496 14.8648 6.54317L16.5608 7.69686C16.8511 7.89431 17.194 7.9999 17.5451 7.9999H18.4312L15.0632 15.6797C14.9245 15.9959 15.0197 16.366 15.2938 16.5761C15.3051 16.5847 15.2927 16.5753 15.2947 16.5769C15.3251 16.5994 15.3557 16.6216 15.3869 16.643C15.439 16.6787 15.5118 16.7266 15.6046 16.7825C15.7899 16.8942 16.0557 17.0385 16.3944 17.1814C17.0717 17.4673 18.0461 17.75 19.2501 17.75C20.4541 17.75 21.4285 17.4673 22.1057 17.1814C22.4444 17.0385 22.7103 16.8942 22.8956 16.7825C23.0445 16.6927 23.125 16.6366 23.2064 16.5761C23.4804 16.366 23.5756 15.9959 23.4369 15.6797L20.069 7.9999H21.6474C22.0617 7.9999 22.3974 7.66411 22.3974 7.2499C22.3974 6.83568 22.0617 6.4999 21.6474 6.4999H17.5451C17.4949 6.4999 17.4459 6.48481 17.4045 6.4566L15.7085 5.30292C15.4182 5.10546 15.0752 4.99988 14.7242 4.99988H12.7502V3.25ZM2.19303 15.6981C2.28266 15.7468 2.38438 15.7982 2.49759 15.8499C3.02478 16.0907 3.79342 16.3335 4.75007 16.3335C5.70672 16.3335 6.47536 16.0907 7.00255 15.8499C7.11576 15.7982 7.21748 15.7468 7.30712 15.6981L4.75007 9.86742L2.19303 15.6981ZM16.7035 15.6743C16.7855 15.7147 16.8771 15.757 16.9777 15.7995C17.5078 16.0232 18.2834 16.25 19.2501 16.25C20.2167 16.25 20.9924 16.0232 21.5224 15.7995C21.623 15.757 21.7146 15.7147 21.7967 15.6743L19.2501 9.86742L16.7035 15.6743Z" fill="#FB3D3D"/>
</svg>
