<svg width="151" height="48" viewBox="0 0 151 48" fill="none" xmlns="http://www.w3.org/2000/svg">
<rect width="48" height="48" rx="5.95349" fill="#2623D2"/>
<path d="M13.7675 20.8803C13.7675 19.0057 14.0687 17.3321 14.6712 15.8592C15.2961 14.3864 16.1329 13.1367 17.1817 12.1102C18.2529 11.0837 19.4691 10.3026 20.8304 9.76707C22.2139 9.20918 23.6756 8.93024 25.2154 8.93024C26.6659 8.93024 27.9937 9.13108 29.1987 9.53276C30.4261 9.91212 31.62 10.4923 32.7804 11.2734L29.8682 15.558C29.1764 15.0894 28.4288 14.71 27.6255 14.4199C26.8221 14.1075 25.963 13.9513 25.048 13.9513C23.9769 13.9513 22.995 14.2079 22.1023 14.7211C21.232 15.2344 20.5291 16.0043 19.9935 17.0308C19.4803 18.0573 19.2236 19.3405 19.2236 20.8803C19.2236 22.42 19.4803 23.7032 19.9935 24.7297C20.5291 25.7562 21.2432 26.5261 22.1358 27.0394C23.0284 27.5526 24.0103 27.8093 25.0815 27.8093C25.9964 27.8093 26.8444 27.6419 27.6255 27.3072C28.4288 26.9724 29.1764 26.5261 29.8682 25.9682L32.9478 30.1189L25.2823 39.0972L25.2823 32.8303C23.7425 32.8303 22.2697 32.5625 20.8638 32.0269C19.4803 31.469 18.2529 30.6768 17.1817 29.6503C16.1329 28.6238 15.2961 27.3741 14.6712 25.9013C14.0687 24.4285 13.7675 22.7548 13.7675 20.8803Z" fill="white"/>
<circle cx="22.1358" cy="20.6982" r="1.30756" fill="white"/>
<circle cx="25.5355" cy="20.6982" r="1.30756" fill="white"/>
<circle cx="31.2887" cy="20.6982" r="2.87663" fill="white"/>
<path d="M59.1426 24.1C59.1426 22.9667 59.3159 21.96 59.6626 21.08C60.0226 20.2 60.5092 19.46 61.1226 18.86C61.7359 18.2467 62.4426 17.78 63.2426 17.46C64.0426 17.14 64.8892 16.98 65.7826 16.98C66.6359 16.98 67.4226 17.1133 68.1426 17.38C68.8759 17.6333 69.5692 18.0133 70.2226 18.52L68.6026 20.66C68.1892 20.34 67.7426 20.0867 67.2626 19.9C66.7826 19.7 66.2692 19.6 65.7226 19.6C65.0292 19.6 64.3959 19.7667 63.8226 20.1C63.2626 20.4333 62.8159 20.94 62.4826 21.62C62.1492 22.2867 61.9826 23.1133 61.9826 24.1C61.9826 25.0867 62.1492 25.92 62.4826 26.6C62.8159 27.2667 63.2692 27.7667 63.8426 28.1C64.4159 28.4333 65.0492 28.6 65.7426 28.6C66.3159 28.6 66.8426 28.5 67.3226 28.3C67.8159 28.0867 68.2692 27.7933 68.6826 27.42L70.3426 29.52C69.6892 30.08 68.9959 30.5067 68.2626 30.8C67.5292 31.08 66.7159 31.22 65.8226 31.22C64.9159 31.22 64.0559 31.06 63.2426 30.74C62.4426 30.42 61.7359 29.96 61.1226 29.36C60.5092 28.7467 60.0226 28 59.6626 27.12C59.3159 26.24 59.1426 25.2333 59.1426 24.1ZM72.0104 25.8C72.0104 24.6533 72.2237 23.6733 72.6504 22.86C73.0904 22.0467 73.6837 21.4267 74.4304 21C75.1771 20.56 76.0371 20.34 77.0104 20.34C77.9837 20.34 78.8437 20.56 79.5904 21C80.3371 21.4267 80.9237 22.0467 81.3504 22.86C81.7771 23.6733 81.9904 24.6533 81.9904 25.8C81.9904 26.92 81.7771 27.8867 81.3504 28.7C80.9237 29.5133 80.3371 30.14 79.5904 30.58C78.8437 31.0067 77.9837 31.22 77.0104 31.22C76.0371 31.22 75.1771 31.0067 74.4304 30.58C73.6837 30.14 73.0904 29.5133 72.6504 28.7C72.2237 27.8867 72.0104 26.92 72.0104 25.8ZM74.6904 25.8C74.6904 26.5333 74.7837 27.1467 74.9704 27.64C75.1571 28.12 75.4237 28.48 75.7704 28.72C76.1171 28.9467 76.5304 29.06 77.0104 29.06C77.4771 29.06 77.8837 28.9467 78.2304 28.72C78.5904 28.48 78.8637 28.12 79.0504 27.64C79.2371 27.1467 79.3304 26.5333 79.3304 25.8C79.3304 25.0533 79.2371 24.44 79.0504 23.96C78.8637 23.48 78.5904 23.12 78.2304 22.88C77.8837 22.6267 77.4771 22.5 77.0104 22.5C76.5304 22.5 76.1171 22.6267 75.7704 22.88C75.4237 23.12 75.1571 23.48 74.9704 23.96C74.7837 24.44 74.6904 25.0533 74.6904 25.8ZM84.4691 31V16.7L87.0891 16.3V31H84.4691ZM90.2895 31V16.7L92.9095 16.3V31H90.2895ZM95.3698 28.28C95.3698 27.64 95.5364 27.0667 95.8698 26.56C96.2164 26.0533 96.7564 25.6467 97.4898 25.34C98.2231 25.02 99.1631 24.84 100.31 24.8L101.93 24.74V26.32L100.47 26.4C99.7898 26.4533 99.2564 26.56 98.8698 26.72C98.4831 26.88 98.2098 27.0733 98.0498 27.3C97.8898 27.5133 97.8098 27.7467 97.8098 28C97.8098 28.36 97.9231 28.6467 98.1498 28.86C98.3898 29.06 98.6898 29.16 99.0498 29.16C99.5564 29.16 100.036 29.0333 100.49 28.78C100.956 28.5267 101.37 28.1933 101.73 27.78V29.4C101.396 29.9333 100.936 30.3733 100.35 30.72C99.7631 31.0533 99.1098 31.22 98.3898 31.22C97.8431 31.22 97.3431 31.1 96.8898 30.86C96.4364 30.62 96.0698 30.28 95.7898 29.84C95.5098 29.4 95.3698 28.88 95.3698 28.28ZM95.6898 21.28C96.1831 21.0267 96.7831 20.8067 97.4898 20.62C98.2098 20.4333 98.9431 20.34 99.6898 20.34C100.543 20.34 101.296 20.5 101.95 20.82C102.603 21.1267 103.116 21.5867 103.49 22.2C103.876 22.8133 104.07 23.5733 104.07 24.48V28.52C104.07 28.8 104.076 29.0533 104.09 29.28C104.116 29.5067 104.156 29.7667 104.21 30.06L104.37 31H101.83L101.43 29V24.66C101.43 23.98 101.25 23.4667 100.89 23.12C100.543 22.7733 100.016 22.6 99.3098 22.6C98.7631 22.6 98.2498 22.68 97.7698 22.84C97.2898 22.9867 96.8498 23.1667 96.4498 23.38L95.6898 21.28ZM106.845 31L107.005 30.06C107.058 29.7667 107.092 29.5067 107.105 29.28C107.132 29.0533 107.145 28.8 107.145 28.52V16.7L109.765 16.3V29L109.365 31H106.845ZM108.805 26.56L109.765 26.42C109.765 27.0467 109.852 27.56 110.025 27.96C110.198 28.36 110.432 28.66 110.725 28.86C111.018 29.0467 111.345 29.14 111.705 29.14C112.412 29.14 112.985 28.8533 113.425 28.28C113.865 27.6933 114.085 26.9 114.085 25.9C114.085 25.1933 113.992 24.6067 113.805 24.14C113.632 23.6733 113.385 23.32 113.065 23.08C112.745 22.84 112.378 22.72 111.965 22.72C111.538 22.72 111.098 22.8333 110.645 23.06C110.205 23.2867 109.812 23.5933 109.465 23.98V22.24C109.878 21.68 110.365 21.2267 110.925 20.88C111.498 20.52 112.125 20.34 112.805 20.34C113.512 20.34 114.158 20.56 114.745 21C115.345 21.44 115.825 22.0667 116.185 22.88C116.545 23.6933 116.725 24.66 116.725 25.78C116.725 26.94 116.532 27.9267 116.145 28.74C115.772 29.5533 115.258 30.1733 114.605 30.6C113.952 31.0133 113.198 31.22 112.345 31.22C111.692 31.22 111.098 31.0533 110.565 30.72C110.032 30.3733 109.605 29.8533 109.285 29.16C108.965 28.4667 108.805 27.6 108.805 26.56ZM117.315 19.66V17.2H127.895V19.66H117.315ZM121.215 31V17.2H123.995V31H121.215ZM128.495 25.96C128.495 24.8 128.708 23.8 129.135 22.96C129.575 22.12 130.168 21.4733 130.915 21.02C131.661 20.5667 132.515 20.34 133.475 20.34C134.381 20.34 135.175 20.5467 135.855 20.96C136.535 21.3733 137.061 21.9667 137.435 22.74C137.821 23.5133 138.015 24.4533 138.015 25.56C138.015 25.76 138.008 25.9467 137.995 26.12C137.981 26.2933 137.961 26.44 137.935 26.56H130.455V24.8H136.015L135.475 25.6C135.475 24.48 135.288 23.6733 134.915 23.18C134.541 22.6867 134.041 22.44 133.415 22.44C132.975 22.44 132.575 22.56 132.215 22.8C131.868 23.04 131.595 23.4133 131.395 23.92C131.195 24.4133 131.095 25.0467 131.095 25.82C131.095 26.5533 131.221 27.16 131.475 27.64C131.741 28.1067 132.101 28.46 132.555 28.7C133.021 28.9267 133.555 29.04 134.155 29.04C134.581 29.04 135.001 28.9733 135.415 28.84C135.841 28.7067 136.221 28.5467 136.555 28.36L137.375 30.34C136.908 30.6067 136.381 30.82 135.795 30.98C135.208 31.14 134.575 31.22 133.895 31.22C132.801 31.22 131.848 31.0133 131.035 30.6C130.221 30.1733 129.595 29.5667 129.155 28.78C128.715 27.9933 128.495 27.0533 128.495 25.96ZM139.686 25.8C139.686 24.6267 139.873 23.64 140.246 22.84C140.633 22.0267 141.153 21.4067 141.806 20.98C142.46 20.5533 143.213 20.34 144.066 20.34C144.72 20.34 145.313 20.52 145.846 20.88C146.38 21.24 146.806 21.7667 147.126 22.46C147.446 23.1533 147.606 24 147.606 25L146.666 25.14C146.666 24.5133 146.58 24.0067 146.406 23.62C146.233 23.22 146 22.9267 145.706 22.74C145.413 22.54 145.08 22.44 144.706 22.44C144 22.44 143.426 22.7267 142.986 23.3C142.546 23.8733 142.326 24.66 142.326 25.66C142.326 26.3667 142.413 26.96 142.586 27.44C142.773 27.9067 143.026 28.26 143.346 28.5C143.666 28.7267 144.033 28.84 144.446 28.84C144.886 28.84 145.326 28.7267 145.766 28.5C146.206 28.26 146.6 27.9333 146.946 27.52V29.32C146.533 29.88 146.046 30.34 145.486 30.7C144.926 31.0467 144.3 31.22 143.606 31.22C142.9 31.22 142.246 31 141.646 30.56C141.06 30.12 140.586 29.4933 140.226 28.68C139.866 27.8667 139.686 26.9067 139.686 25.8ZM147.046 31L146.646 29V16.7L149.266 16.3V28.52C149.266 28.8 149.273 29.0533 149.286 29.28C149.313 29.5067 149.353 29.7667 149.406 30.06L149.566 31H147.046Z" fill="black"/>
</svg>
