<svg width="21" height="21" viewBox="0 0 21 21" fill="none" xmlns="http://www.w3.org/2000/svg">
<g id="people-24">
<g id="Icon">
<path fill-rule="evenodd" clip-rule="evenodd" d="M3.75454 7.19027C3.75454 4.65897 5.80653 2.60693 8.3378 2.60693C10.8691 2.60693 12.9211 4.65897 12.9211 7.19027C12.9211 8.76484 12.1271 10.154 10.9176 10.9791C13.7214 12.0062 15.741 14.6594 15.8344 17.7967C15.8446 18.1417 15.5733 18.4297 15.2282 18.44C14.8832 18.4503 14.5952 18.1789 14.5849 17.8339C14.4848 14.4701 11.726 11.7736 8.33773 11.7736C4.94941 11.7736 2.19066 14.4701 2.09055 17.8339C2.08028 18.1789 1.79226 18.4503 1.44723 18.44C1.10221 18.4297 0.830834 18.1417 0.841102 17.7967C0.934476 14.6594 2.95413 12.0061 5.75792 10.9791C4.54851 10.1539 3.75454 8.76482 3.75454 7.19027ZM8.3378 3.85693C6.4969 3.85693 5.00454 5.34931 5.00454 7.19027C5.00454 9.03123 6.4969 10.5236 8.3378 10.5236C10.1787 10.5236 11.6711 9.03123 11.6711 7.19027C11.6711 5.34931 10.1787 3.85693 8.3378 3.85693Z" fill="#1F2328"/>
<path d="M15.2461 7.19027C15.1231 7.19027 15.0024 7.19903 14.8847 7.21586C14.543 7.26474 14.2263 7.02735 14.1775 6.68565C14.1286 6.34395 14.366 6.02733 14.7077 5.97846C14.8839 5.95326 15.0637 5.94027 15.2461 5.94027C17.331 5.94027 19.0211 7.6304 19.0211 9.71527C19.0211 10.9451 18.4329 12.0368 17.5241 12.7256C19.467 13.5965 20.8211 15.5471 20.8211 17.8153C20.8211 18.1604 20.5413 18.4403 20.1961 18.4403C19.8509 18.4403 19.5711 18.1604 19.5711 17.8153C19.5711 15.8604 18.2736 14.2069 16.4914 13.6721L16.0461 13.5384V12.1418L16.388 11.9681C17.21 11.5504 17.7711 10.6978 17.7711 9.71527C17.7711 8.32074 16.6406 7.19027 15.2461 7.19027Z" fill="#1F2328"/>
</g>
</g>
</svg>
